<svg width="8" height="12" viewBox="0 0 8 12" version="1.1" xmlns="http://www.w3.org/2000/svg" xmlns:xlink="http://www.w3.org/1999/xlink">
<title>&#239;&#129;&#129;</title>
<desc>Created using Figma</desc>
<g id="Canvas" transform="translate(328 490)">
<g id="&#239;&#129;&#129;">
<use xlink:href="#path0_fill" transform="translate(-328 -491)" fill="#CF0028"/>
</g>
</g>
<defs>
<path id="path0_fill" d="M 6 5C 6 6.10156 5.10156 7 4 7C 2.89844 7 2 6.10156 2 5C 2 3.89844 2.89844 3 4 3C 5.10156 3 6 3.89844 6 5ZM 8 5C 8 2.78906 6.21094 1 4 1C 1.78906 1 0 2.78906 0 5C 0 5.47656 0.0546875 5.96875 0.257813 6.39844L 3.10938 12.4453C 3.26563 12.7891 3.625 13 4 13C 4.375 13 4.73437 12.7891 4.89844 12.4453L 7.74219 6.39844C 7.94531 5.96875 8 5.47656 8 5Z"/>
</defs>
</svg>
